M48
; DRILL file {KiCad (5.1.0)-1} date 6/7/2019 9:53:25 PM
; FORMAT={-:-/ absolute / inch / decimal}
; #@! TF.CreationDate,2019-06-07T21:53:25+02:00
; #@! TF.GenerationSoftware,Kicad,Pcbnew,(5.1.0)-1
; #@! TF.FileFunction,Plated,1,2,PTH
FMAT,2
INCH
T1C0.0300
T2C0.0315
T3C0.0500
%
G90
G05
T1
X2.05Y-1.26
X2.05Y-1.36
X2.05Y-1.46
X2.05Y-1.56
X2.05Y-1.66
X2.15Y-1.26
X2.15Y-1.36
X2.15Y-1.46
X2.15Y-1.56
X2.15Y-1.66
X5.0286Y-1.26
X5.0286Y-1.36
X5.0286Y-1.46
X5.0286Y-1.56
X5.0286Y-1.66
X5.1286Y-1.26
X5.1286Y-1.36
X5.1286Y-1.46
X5.1286Y-1.56
X5.1286Y-1.66
X8.0071Y-1.26
X8.0071Y-1.36
X8.0071Y-1.46
X8.0071Y-1.56
X8.0071Y-1.66
X8.1071Y-1.26
X8.1071Y-1.36
X8.1071Y-1.46
X8.1071Y-1.56
X8.1071Y-1.66
X5.525Y-1.26
X5.525Y-1.36
X5.525Y-1.46
X5.525Y-1.56
X5.525Y-1.66
X5.625Y-1.26
X5.625Y-1.36
X5.625Y-1.46
X5.625Y-1.56
X5.625Y-1.66
X6.5179Y-1.26
X6.5179Y-1.36
X6.5179Y-1.46
X6.5179Y-1.56
X6.5179Y-1.66
X6.6179Y-1.26
X6.6179Y-1.36
X6.6179Y-1.46
X6.6179Y-1.56
X6.6179Y-1.66
X7.0143Y-1.26
X7.0143Y-1.36
X7.0143Y-1.46
X7.0143Y-1.56
X7.0143Y-1.66
X7.1143Y-1.26
X7.1143Y-1.36
X7.1143Y-1.46
X7.1143Y-1.56
X7.1143Y-1.66
X4.5321Y-1.26
X4.5321Y-1.36
X4.5321Y-1.46
X4.5321Y-1.56
X4.5321Y-1.66
X4.6321Y-1.26
X4.6321Y-1.36
X4.6321Y-1.46
X4.6321Y-1.56
X4.6321Y-1.66
X2.5464Y-1.26
X2.5464Y-1.36
X2.5464Y-1.46
X2.5464Y-1.56
X2.5464Y-1.66
X2.6464Y-1.26
X2.6464Y-1.36
X2.6464Y-1.46
X2.6464Y-1.56
X2.6464Y-1.66
X6.02Y-1.26
X6.02Y-1.36
X6.02Y-1.46
X6.02Y-1.56
X6.02Y-1.66
X6.12Y-1.26
X6.12Y-1.36
X6.12Y-1.46
X6.12Y-1.56
X6.12Y-1.66
X3.0429Y-1.26
X3.0429Y-1.36
X3.0429Y-1.46
X3.0429Y-1.56
X3.0429Y-1.66
X3.1429Y-1.26
X3.1429Y-1.36
X3.1429Y-1.46
X3.1429Y-1.56
X3.1429Y-1.66
X4.0357Y-1.26
X4.0357Y-1.36
X4.0357Y-1.46
X4.0357Y-1.56
X4.0357Y-1.66
X4.1357Y-1.26
X4.1357Y-1.36
X4.1357Y-1.46
X4.1357Y-1.56
X4.1357Y-1.66
X7.51Y-1.26
X7.51Y-1.36
X7.51Y-1.46
X7.51Y-1.56
X7.51Y-1.66
X7.61Y-1.26
X7.61Y-1.36
X7.61Y-1.46
X7.61Y-1.56
X7.61Y-1.66
X3.5393Y-1.26
X3.5393Y-1.36
X3.5393Y-1.46
X3.5393Y-1.56
X3.5393Y-1.66
X3.6393Y-1.26
X3.6393Y-1.36
X3.6393Y-1.46
X3.6393Y-1.56
X3.6393Y-1.66
X9.0Y-1.26
X9.0Y-1.36
X9.0Y-1.46
X9.0Y-1.56
X9.0Y-1.66
X9.1Y-1.26
X9.1Y-1.36
X9.1Y-1.46
X9.1Y-1.56
X9.1Y-1.66
X8.5036Y-1.26
X8.5036Y-1.36
X8.5036Y-1.46
X8.5036Y-1.56
X8.5036Y-1.66
X8.6036Y-1.26
X8.6036Y-1.36
X8.6036Y-1.46
X8.6036Y-1.56
X8.6036Y-1.66
T2
X1.8Y-1.5331
X1.8Y-1.73
X1.8Y-1.22
X1.8Y-1.4169
T3
X1.195Y-1.25
X1.195Y-1.45
X1.195Y-1.65
T0
M30
