M48
;DRILL file {KiCad (5.0.1)-4} date 3/5/2019 2:26:42 AM
;FORMAT={-:-/ absolute / inch / decimal}
FMAT,2
INCH,TZ
T1C0.0300
T2C0.0315
T3C0.0354
T4C0.0500
%
G90
G05
M72
T1
X8.45Y-1.25
X8.45Y-1.35
X8.45Y-1.45
X8.45Y-1.55
X8.45Y-1.65
X8.55Y-1.25
X8.55Y-1.35
X8.55Y-1.45
X8.55Y-1.55
X8.55Y-1.65
X4.6Y-1.25
X4.6Y-1.35
X4.6Y-1.45
X4.6Y-1.55
X4.6Y-1.65
X4.7Y-1.25
X4.7Y-1.35
X4.7Y-1.45
X4.7Y-1.55
X4.7Y-1.65
X6.8Y-1.25
X6.8Y-1.35
X6.8Y-1.45
X6.8Y-1.55
X6.8Y-1.65
X6.9Y-1.25
X6.9Y-1.35
X6.9Y-1.45
X6.9Y-1.55
X6.9Y-1.65
X4.05Y-1.25
X4.05Y-1.35
X4.05Y-1.45
X4.05Y-1.55
X4.05Y-1.65
X4.15Y-1.25
X4.15Y-1.35
X4.15Y-1.45
X4.15Y-1.55
X4.15Y-1.65
X7.35Y-1.25
X7.35Y-1.35
X7.35Y-1.45
X7.35Y-1.55
X7.35Y-1.65
X7.45Y-1.25
X7.45Y-1.35
X7.45Y-1.45
X7.45Y-1.55
X7.45Y-1.65
X5.7Y-1.25
X5.7Y-1.35
X5.7Y-1.45
X5.7Y-1.55
X5.7Y-1.65
X5.8Y-1.25
X5.8Y-1.35
X5.8Y-1.45
X5.8Y-1.55
X5.8Y-1.65
X6.25Y-1.25
X6.25Y-1.35
X6.25Y-1.45
X6.25Y-1.55
X6.25Y-1.65
X6.35Y-1.25
X6.35Y-1.35
X6.35Y-1.45
X6.35Y-1.55
X6.35Y-1.65
X7.9Y-1.25
X7.9Y-1.35
X7.9Y-1.45
X7.9Y-1.55
X7.9Y-1.65
X8.Y-1.25
X8.Y-1.35
X8.Y-1.45
X8.Y-1.55
X8.Y-1.65
X9.Y-1.25
X9.Y-1.35
X9.Y-1.45
X9.Y-1.55
X9.Y-1.65
X9.1Y-1.25
X9.1Y-1.35
X9.1Y-1.45
X9.1Y-1.55
X9.1Y-1.65
X5.15Y-1.25
X5.15Y-1.35
X5.15Y-1.45
X5.15Y-1.55
X5.15Y-1.65
X5.25Y-1.25
X5.25Y-1.35
X5.25Y-1.45
X5.25Y-1.55
X5.25Y-1.65
T2
X3.64Y-1.5
X3.64Y-1.9
X3.64Y-1.01
X3.64Y-1.41
X3.77Y-1.51
X3.77Y-1.7069
X3.77Y-1.2
X3.77Y-1.3969
T3
X3.4Y-1.8
X3.5Y-1.8
X3.4Y-1.1
X3.5Y-1.1
T4
X1.05Y-1.35
X1.05Y-1.55
X1.85Y-1.05
X1.85Y-1.35
X1.85Y-1.55
X2.65Y-1.05
X2.65Y-1.45
X2.65Y-1.85
T0
M30
