G04 #@! TF.GenerationSoftware,KiCad,Pcbnew,(5.0.1)-4*
G04 #@! TF.CreationDate,2019-03-05T02:26:38+01:00*
G04 #@! TF.ProjectId,PSU - 1.5A,505355202D20312E35412E6B69636164,rev?*
G04 #@! TF.SameCoordinates,Original*
G04 #@! TF.FileFunction,Legend,Bot*
G04 #@! TF.FilePolarity,Positive*
%FSLAX46Y46*%
G04 Gerber Fmt 4.6, Leading zero omitted, Abs format (unit mm)*
G04 Created by KiCad (PCBNEW (5.0.1)-4) date 3/5/2019 2:26:38 AM*
%MOMM*%
%LPD*%
G01*
G04 APERTURE LIST*
%ADD10C,0.300000*%
G04 APERTURE END LIST*
D10*
X23602142Y-31405000D02*
X23602142Y-32547857D01*
X22673571Y-33047857D02*
X24173571Y-33547857D01*
X22673571Y-34047857D01*
X24173571Y-34547857D02*
X23173571Y-34547857D01*
X22673571Y-34547857D02*
X22745000Y-34476428D01*
X22816428Y-34547857D01*
X22745000Y-34619285D01*
X22673571Y-34547857D01*
X22816428Y-34547857D01*
X23173571Y-35262142D02*
X24173571Y-35262142D01*
X23316428Y-35262142D02*
X23245000Y-35333571D01*
X23173571Y-35476428D01*
X23173571Y-35690714D01*
X23245000Y-35833571D01*
X23387857Y-35905000D01*
X24173571Y-35905000D01*
X23602142Y-38390000D02*
X23602142Y-39532857D01*
X24173571Y-38961428D02*
X23030714Y-38961428D01*
X22673571Y-40032857D02*
X24173571Y-40532857D01*
X22673571Y-41032857D01*
X24173571Y-41532857D02*
X23173571Y-41532857D01*
X22673571Y-41532857D02*
X22745000Y-41461428D01*
X22816428Y-41532857D01*
X22745000Y-41604285D01*
X22673571Y-41532857D01*
X22816428Y-41532857D01*
X23173571Y-42247142D02*
X24173571Y-42247142D01*
X23316428Y-42247142D02*
X23245000Y-42318571D01*
X23173571Y-42461428D01*
X23173571Y-42675714D01*
X23245000Y-42818571D01*
X23387857Y-42890000D01*
X24173571Y-42890000D01*
M02*
